<svg width="30" height="30" viewBox="0 0 30 30" fill="none" xmlns="http://www.w3.org/2000/svg">
<path d="M7.5 6.75V18.75H21.2929C21.8066 18.75 22.0635 18.75 22.1274 18.5957C22.1913 18.4413 22.0097 18.2597 21.6464 17.8964L16.5328 12.7828C16.3995 12.6495 16.3328 12.5828 16.3328 12.5C16.3328 12.4172 16.3995 12.3505 16.5328 12.2172L21.6464 7.10355C22.0097 6.74029 22.1913 6.55866 22.1274 6.40433C22.0635 6.25 21.8066 6.25 21.2929 6.25H8C7.7643 6.25 7.64645 6.25 7.57322 6.32322C7.5 6.39645 7.5 6.5143 7.5 6.75Z" fill="#4BB7D5"/>
<path d="M7.5 18.75V6.75C7.5 6.5143 7.5 6.39645 7.57322 6.32322C7.64645 6.25 7.7643 6.25 8 6.25H21.2929C21.8066 6.25 22.0635 6.25 22.1274 6.40433C22.1913 6.55866 22.0097 6.74029 21.6464 7.10355L16.5328 12.2172C16.3995 12.3505 16.3328 12.4172 16.3328 12.5C16.3328 12.5828 16.3995 12.6495 16.5328 12.7828L21.6464 17.8964C22.0097 18.2597 22.1913 18.4413 22.1274 18.5957C22.0635 18.75 21.8066 18.75 21.2929 18.75H7.5ZM7.5 18.75V23.75" stroke="#4BB7D5" stroke-width="2" stroke-linecap="round"/>
</svg>
