<svg width="20" height="20" viewBox="0 0 20 20" fill="none" xmlns="http://www.w3.org/2000/svg">
<path fill-rule="evenodd" clip-rule="evenodd" d="M10.3999 16.4678C11.7162 15.7735 15.8337 13.2735 15.8337 9.16665C15.8337 5.94499 13.222 3.33331 10.0003 3.33331C6.77866 3.33331 4.16699 5.94499 4.16699 9.16665C4.16699 13.2735 8.28441 15.7735 9.60079 16.4678C9.85275 16.6007 10.1479 16.6007 10.3999 16.4678ZM10.0003 11.6666C11.381 11.6666 12.5003 10.5474 12.5003 9.16665C12.5003 7.78593 11.381 6.66665 10.0003 6.66665C8.61961 6.66665 7.50033 7.78593 7.50033 9.16665C7.50033 10.5474 8.61961 11.6666 10.0003 11.6666Z" fill="#737373"/>
</svg>
