<svg width="28" height="28" viewBox="0 0 28 28" fill="none" xmlns="http://www.w3.org/2000/svg">
<path d="M11.8346 7.73228C12.7523 5.44445 13.2111 4.30054 14.0002 4.30054C14.7892 4.30054 15.2481 5.44445 16.1658 7.73229L16.2085 7.83882C16.727 9.13133 16.9862 9.77759 17.5145 10.1704C18.0429 10.5632 18.7364 10.6253 20.1235 10.7495L20.3742 10.772C22.6443 10.9753 23.7794 11.0769 24.0223 11.7991C24.2652 12.5212 23.4222 13.2881 21.7363 14.8219L21.1737 15.3339C20.3202 16.1103 19.8935 16.4985 19.6946 17.0073C19.6575 17.1022 19.6267 17.1995 19.6023 17.2984C19.4716 17.8289 19.5965 18.3921 19.8464 19.5184L19.9242 19.869C20.3835 21.9391 20.6132 22.9741 20.2122 23.4206C20.0624 23.5874 19.8677 23.7075 19.6513 23.7665C19.0724 23.9245 18.2505 23.2548 16.6068 21.9153C15.5274 21.0358 14.9877 20.596 14.3681 20.4971C14.1244 20.4582 13.876 20.4582 13.6323 20.4971C13.0127 20.596 12.473 21.0358 11.3936 21.9153C9.74984 23.2548 8.92795 23.9245 8.34905 23.7665C8.13273 23.7075 7.938 23.5874 7.78817 23.4206C7.38721 22.9741 7.61686 21.9391 8.07614 19.869L8.15393 19.5184C8.40384 18.3921 8.5288 17.8289 8.39807 17.2984C8.37368 17.1995 8.34284 17.1022 8.30574 17.0073C8.10685 16.4985 7.68014 16.1103 6.82672 15.3339L6.26405 14.8219C4.57817 13.2881 3.73523 12.5212 3.9781 11.7991C4.22098 11.0769 5.35604 10.9753 7.62615 10.772L7.87691 10.7495C9.26398 10.6253 9.95751 10.5632 10.4858 10.1704C11.0142 9.77759 11.2734 9.13133 11.7919 7.83882L11.8346 7.73228Z" stroke="#737373" stroke-width="2"/>
</svg>
