<svg width="21" height="20" viewBox="0 0 21 20" fill="none" xmlns="http://www.w3.org/2000/svg">
<path d="M8.84778 6.01661C9.37883 4.68271 9.64435 4.01576 10.0757 3.92332C10.1892 3.89901 10.3064 3.89901 10.4198 3.92332C10.8512 4.01576 11.1167 4.68271 11.6478 6.01661C11.9498 6.77518 12.1008 7.15446 12.3833 7.41244C12.4626 7.48479 12.5486 7.54924 12.6402 7.60486C12.9667 7.80318 13.3744 7.83996 14.1897 7.91353C15.5699 8.03807 16.26 8.10035 16.4707 8.4968C16.5144 8.57891 16.5441 8.66781 16.5585 8.7598C16.6284 9.20399 16.1211 9.66904 15.1064 10.5991L14.8247 10.8574C14.3503 11.2923 14.1131 11.5097 13.9759 11.781C13.8936 11.9438 13.8385 12.1191 13.8126 12.2999C13.7695 12.6013 13.839 12.9167 13.9779 13.5475L14.0275 13.7729C14.2766 14.9042 14.4012 15.4698 14.2457 15.7478C14.106 15.9976 13.8488 16.1575 13.5646 16.1711C13.2482 16.1864 12.8024 15.8204 11.9109 15.0884C11.3235 14.6061 11.0298 14.365 10.7037 14.2708C10.4058 14.1847 10.0898 14.1847 9.79184 14.2708C9.4658 14.365 9.1721 14.6061 8.58471 15.0884C7.69314 15.8204 7.24736 16.1864 6.93098 16.1711C6.6468 16.1575 6.38954 15.9976 6.24988 15.7478C6.09439 15.4698 6.21895 14.9042 6.46806 13.7729L6.51769 13.5475C6.6566 12.9167 6.72606 12.6013 6.68296 12.2999C6.6571 12.1191 6.60192 11.9438 6.51963 11.781C6.38244 11.5097 6.14525 11.2923 5.67089 10.8574L5.38913 10.5991C4.37448 9.66904 3.86716 9.20399 3.93702 8.7598C3.95149 8.66781 3.98117 8.57891 4.02481 8.4968C4.23555 8.10035 4.92565 8.03807 6.30584 7.91353C7.12116 7.83996 7.52882 7.80318 7.85538 7.60486C7.94698 7.54924 8.033 7.48479 8.11225 7.41244C8.39479 7.15446 8.54579 6.77518 8.84778 6.01661Z" fill="#4BB7D5" stroke="#4BB7D5" stroke-width="2"/>
</svg>
