<svg width="29" height="28" viewBox="0 0 29 28" fill="none" xmlns="http://www.w3.org/2000/svg">
<path d="M12.5254 8.42317C13.2745 6.55571 13.649 5.62197 14.2575 5.49256C14.4175 5.45853 14.5829 5.45853 14.7429 5.49256C15.3514 5.62197 15.726 6.55571 16.4751 8.42317C16.901 9.48517 17.114 10.0162 17.5126 10.3773C17.6244 10.4786 17.7457 10.5688 17.8749 10.6467C18.3356 10.9244 18.9106 10.9759 20.0607 11.0789C22.0076 11.2532 22.981 11.3404 23.2783 11.8954C23.3399 12.0104 23.3817 12.1348 23.4021 12.2636C23.5007 12.8855 22.7851 13.5366 21.3538 14.8387L20.9564 15.2003C20.2872 15.8091 19.9527 16.1135 19.7591 16.4933C19.643 16.7212 19.5652 16.9666 19.5287 17.2197C19.4679 17.6417 19.5659 18.0833 19.7619 18.9664L19.8319 19.282C20.1833 20.8658 20.359 21.6577 20.1396 22.0469C19.9426 22.3965 19.5797 22.6204 19.1789 22.6395C18.7326 22.6608 18.1038 22.1484 16.8461 21.1236C16.0176 20.4485 15.6033 20.1109 15.1434 19.979C14.7231 19.8585 14.2774 19.8585 13.8571 19.979C13.3972 20.1109 12.9829 20.4485 12.1543 21.1236C10.8967 22.1484 10.2679 22.6608 9.82158 22.6395C9.42072 22.6204 9.05783 22.3965 8.86082 22.0469C8.64149 21.6577 8.81719 20.8658 9.16859 19.282L9.2386 18.9664C9.43454 18.0833 9.53251 17.6417 9.47172 17.2197C9.43525 16.9666 9.35741 16.7212 9.24133 16.4933C9.04781 16.1135 8.71324 15.8091 8.0441 15.2003L7.64665 14.8387C6.2154 13.5366 5.49977 12.8855 5.59832 12.2636C5.61874 12.1348 5.66059 12.0104 5.72216 11.8954C6.01943 11.3404 6.99287 11.2532 8.93976 11.0789C10.0898 10.9759 10.6649 10.9244 11.1255 10.6467C11.2547 10.5688 11.3761 10.4786 11.4879 10.3773C11.8864 10.0162 12.0994 9.48517 12.5254 8.42317Z" fill="#4BB7D5" stroke="#4BB7D5" stroke-width="2"/>
</svg>
